<mxfile host="app.diagrams.net" modified="2022-10-25T22:22:00.063Z" agent="5.0 (Windows NT 10.0; Win64; x64) AppleWebKit/537.36 (KHTML, like Gecko) Chrome/104.0.0.0 Safari/537.36" etag="TQAaOEoTr2W9SU3X8rYU" version="20.5.1" type="github">
  <diagram id="geLf6uwpOoYw_toTg1xx" name="Page-1">
    <mxGraphModel dx="868" dy="482" grid="1" gridSize="10" guides="1" tooltips="1" connect="1" arrows="1" fold="1" page="1" pageScale="1" pageWidth="850" pageHeight="1100" math="0" shadow="0">
      <root>
        <mxCell id="0" />
        <mxCell id="1" parent="0" />
        <mxCell id="HCodv4bbzWh6vQ75QfW5-4" value="" style="rounded=1;whiteSpace=wrap;html=1;absoluteArcSize=1;arcSize=14;strokeWidth=2;fillColor=#485461;" vertex="1" parent="1">
          <mxGeometry x="330" y="130" width="320" height="480" as="geometry" />
        </mxCell>
        <mxCell id="HCodv4bbzWh6vQ75QfW5-3" value="" style="rounded=1;whiteSpace=wrap;html=1;fillColor=#4357692d;gradientColor=none;" vertex="1" parent="1">
          <mxGeometry x="345" y="140" width="290" height="80" as="geometry" />
        </mxCell>
        <mxCell id="HCodv4bbzWh6vQ75QfW5-5" value="" style="rounded=1;whiteSpace=wrap;html=1;absoluteArcSize=1;arcSize=14;strokeWidth=2;fillColor=#5036D1;" vertex="1" parent="1">
          <mxGeometry x="340" y="240" width="60" height="60" as="geometry" />
        </mxCell>
        <mxCell id="HCodv4bbzWh6vQ75QfW5-6" value="" style="rounded=1;whiteSpace=wrap;html=1;absoluteArcSize=1;arcSize=14;strokeWidth=2;fillColor=#5036D1;" vertex="1" parent="1">
          <mxGeometry x="420" y="240" width="60" height="60" as="geometry" />
        </mxCell>
        <mxCell id="HCodv4bbzWh6vQ75QfW5-7" value="" style="rounded=1;whiteSpace=wrap;html=1;absoluteArcSize=1;arcSize=14;strokeWidth=2;fillColor=#5036D1;" vertex="1" parent="1">
          <mxGeometry x="500" y="240" width="60" height="60" as="geometry" />
        </mxCell>
        <mxCell id="HCodv4bbzWh6vQ75QfW5-9" value="" style="rounded=1;whiteSpace=wrap;html=1;absoluteArcSize=1;arcSize=14;strokeWidth=2;fillColor=#5036D1;" vertex="1" parent="1">
          <mxGeometry x="580" y="240" width="60" height="60" as="geometry" />
        </mxCell>
        <mxCell id="HCodv4bbzWh6vQ75QfW5-10" value="" style="rounded=1;whiteSpace=wrap;html=1;absoluteArcSize=1;arcSize=14;strokeWidth=2;fillColor=#5036D1;" vertex="1" parent="1">
          <mxGeometry x="340" y="320" width="60" height="60" as="geometry" />
        </mxCell>
        <mxCell id="HCodv4bbzWh6vQ75QfW5-11" value="" style="rounded=1;whiteSpace=wrap;html=1;absoluteArcSize=1;arcSize=14;strokeWidth=2;fillColor=#5036D1;" vertex="1" parent="1">
          <mxGeometry x="420" y="320" width="60" height="60" as="geometry" />
        </mxCell>
        <mxCell id="HCodv4bbzWh6vQ75QfW5-12" value="" style="rounded=1;whiteSpace=wrap;html=1;absoluteArcSize=1;arcSize=14;strokeWidth=2;fillColor=#5036D1;" vertex="1" parent="1">
          <mxGeometry x="500" y="320" width="60" height="60" as="geometry" />
        </mxCell>
        <mxCell id="HCodv4bbzWh6vQ75QfW5-13" value="" style="rounded=1;whiteSpace=wrap;html=1;absoluteArcSize=1;arcSize=14;strokeWidth=2;fillColor=#5036D1;" vertex="1" parent="1">
          <mxGeometry x="580" y="320" width="60" height="60" as="geometry" />
        </mxCell>
        <mxCell id="HCodv4bbzWh6vQ75QfW5-14" value="" style="rounded=1;whiteSpace=wrap;html=1;absoluteArcSize=1;arcSize=14;strokeWidth=2;fillColor=#5036D1;" vertex="1" parent="1">
          <mxGeometry x="340" y="400" width="60" height="60" as="geometry" />
        </mxCell>
        <mxCell id="HCodv4bbzWh6vQ75QfW5-15" value="" style="rounded=1;whiteSpace=wrap;html=1;absoluteArcSize=1;arcSize=14;strokeWidth=2;fillColor=#5036D1;" vertex="1" parent="1">
          <mxGeometry x="580" y="400" width="60" height="60" as="geometry" />
        </mxCell>
        <mxCell id="HCodv4bbzWh6vQ75QfW5-16" value="" style="rounded=1;whiteSpace=wrap;html=1;absoluteArcSize=1;arcSize=14;strokeWidth=2;fillColor=#5036D1;" vertex="1" parent="1">
          <mxGeometry x="420" y="400" width="60" height="60" as="geometry" />
        </mxCell>
        <mxCell id="HCodv4bbzWh6vQ75QfW5-17" value="" style="rounded=1;whiteSpace=wrap;html=1;absoluteArcSize=1;arcSize=14;strokeWidth=2;fillColor=#5036D1;" vertex="1" parent="1">
          <mxGeometry x="500" y="400" width="60" height="60" as="geometry" />
        </mxCell>
        <mxCell id="HCodv4bbzWh6vQ75QfW5-18" value="" style="rounded=1;whiteSpace=wrap;html=1;absoluteArcSize=1;arcSize=14;strokeWidth=2;fillColor=#5036D1;" vertex="1" parent="1">
          <mxGeometry x="340" y="470" width="60" height="60" as="geometry" />
        </mxCell>
        <mxCell id="HCodv4bbzWh6vQ75QfW5-19" value="" style="rounded=1;whiteSpace=wrap;html=1;absoluteArcSize=1;arcSize=14;strokeWidth=2;fillColor=#5036D1;" vertex="1" parent="1">
          <mxGeometry x="420" y="470" width="60" height="60" as="geometry" />
        </mxCell>
        <mxCell id="HCodv4bbzWh6vQ75QfW5-20" value="" style="rounded=1;whiteSpace=wrap;html=1;absoluteArcSize=1;arcSize=14;strokeWidth=2;fillColor=#5036D1;" vertex="1" parent="1">
          <mxGeometry x="340" y="540" width="60" height="60" as="geometry" />
        </mxCell>
        <mxCell id="HCodv4bbzWh6vQ75QfW5-21" value="" style="rounded=1;whiteSpace=wrap;html=1;absoluteArcSize=1;arcSize=14;strokeWidth=2;fillColor=#5036D1;" vertex="1" parent="1">
          <mxGeometry x="420" y="540" width="60" height="60" as="geometry" />
        </mxCell>
        <mxCell id="HCodv4bbzWh6vQ75QfW5-22" value="" style="rounded=1;whiteSpace=wrap;html=1;absoluteArcSize=1;arcSize=14;strokeWidth=2;fillColor=#5036D1;" vertex="1" parent="1">
          <mxGeometry x="500" y="470" width="60" height="60" as="geometry" />
        </mxCell>
        <mxCell id="HCodv4bbzWh6vQ75QfW5-23" value="" style="rounded=1;whiteSpace=wrap;html=1;absoluteArcSize=1;arcSize=14;strokeWidth=2;fillColor=#5036D1;" vertex="1" parent="1">
          <mxGeometry x="580" y="470" width="60" height="60" as="geometry" />
        </mxCell>
        <mxCell id="HCodv4bbzWh6vQ75QfW5-24" value="" style="rounded=1;whiteSpace=wrap;html=1;absoluteArcSize=1;arcSize=14;strokeWidth=2;fillColor=#F33D1D;" vertex="1" parent="1">
          <mxGeometry x="500" y="540" width="140" height="60" as="geometry" />
        </mxCell>
      </root>
    </mxGraphModel>
  </diagram>
</mxfile>
